STARTFONT 2.1
FONT -FontForge-Roboto Medium-Medium-R-Normal--17-120-100-100-P-96-ISO10646-1
SIZE 12 100 100
FONTBOUNDINGBOX 32 22 -12 -4
COMMENT "Generated by fontforge, http://fontforge.sourceforge.net"
COMMENT "Copyright 2011 Google Inc. All Rights Reserved."
STARTPROPERTIES 41
FOUNDRY "FontForge"
FAMILY_NAME "Roboto Medium"
WEIGHT_NAME "Medium"
SLANT "R"
SETWIDTH_NAME "Normal"
ADD_STYLE_NAME ""
PIXEL_SIZE 17
POINT_SIZE 120
RESOLUTION_X 100
RESOLUTION_Y 100
SPACING "P"
AVERAGE_WIDTH 96
CHARSET_REGISTRY "ISO10646"
CHARSET_ENCODING "1"
FONTNAME_REGISTRY ""
CHARSET_COLLECTIONS "ISO8859-2 ISO8859-5 ISO8859-7 ISO8859-9 ISO8859-4 ISO10646-1"
FONT_NAME "Roboto-Medium"
FACE_NAME "Roboto Medium"
COPYRIGHT "Copyright 2011 Google Inc. All Rights Reserved."
FONT_VERSION "2.137; 2017"
FONT_ASCENT 13
FONT_DESCENT 4
UNDERLINE_POSITION -2
UNDERLINE_THICKNESS 1
X_HEIGHT 8
CAP_HEIGHT 11
DEFAULT_CHAR 1
RAW_ASCENT 750
RAW_DESCENT 250
NORM_SPACE 4
RELATIVE_WEIGHT 50
RELATIVE_SETWIDTH 50
SUPERSCRIPT_X 0
SUPERSCRIPT_Y 8
SUPERSCRIPT_SIZE 11
SUBSCRIPT_X 0
SUBSCRIPT_Y 2
SUBSCRIPT_SIZE 11
FIGURE_WIDTH 10
AVG_LOWERCASE_WIDTH 94
AVG_UPPERCASE_WIDTH 113
ENDPROPERTIES
CHARS 95
STARTCHAR space
ENCODING 32
SWIDTH 249 0
DWIDTH 4 0
BBX 1 1 0 0
BITMAP
00
ENDCHAR
STARTCHAR exclam
ENCODING 33
SWIDTH 268 0
DWIDTH 5 0
BBX 3 12 1 0
BITMAP
E0
E0
C0
40
40
40
40
40
00
00
E0
E0
ENDCHAR
STARTCHAR quotedbl
ENCODING 34
SWIDTH 324 0
DWIDTH 6 0
BBX 4 4 1 9
BITMAP
B0
B0
B0
B0
ENDCHAR
STARTCHAR numbersign
ENCODING 35
SWIDTH 610 0
DWIDTH 10 0
BBX 9 12 1 0
BITMAP
1B00
1300
1200
FF80
3200
3600
2600
FF00
2400
6400
6400
6C00
ENDCHAR
STARTCHAR dollar
ENCODING 36
SWIDTH 568 0
DWIDTH 10 0
BBX 8 16 1 -2
BITMAP
08
08
3C
7E
67
C3
60
78
1E
07
C3
C3
7F
3C
18
18
ENDCHAR
STARTCHAR percent
ENCODING 37
SWIDTH 734 0
DWIDTH 12 0
BBX 11 12 1 0
BITMAP
7000
9900
9B00
9A00
9E00
7400
0BC0
1A40
1660
3660
2240
03C0
ENDCHAR
STARTCHAR ampersand
ENCODING 38
SWIDTH 639 0
DWIDTH 11 0
BBX 10 12 1 0
BITMAP
3C00
7E00
6600
6600
6C00
3800
7980
CD80
C780
C300
FF80
7DC0
ENDCHAR
STARTCHAR quotesingle
ENCODING 39
SWIDTH 168 0
DWIDTH 3 0
BBX 1 4 1 9
BITMAP
80
80
80
80
ENDCHAR
STARTCHAR parenleft
ENCODING 40
SWIDTH 348 0
DWIDTH 6 0
BBX 5 18 1 -4
BITMAP
10
38
30
60
60
40
C0
C0
C0
C0
C0
C0
40
60
60
20
30
18
ENDCHAR
STARTCHAR parenright
ENCODING 41
SWIDTH 352 0
DWIDTH 6 0
BBX 5 18 0 -4
BITMAP
40
C0
60
30
30
10
18
18
18
18
18
18
10
30
30
60
40
80
ENDCHAR
STARTCHAR asterisk
ENCODING 42
SWIDTH 441 0
DWIDTH 8 0
BBX 7 8 0 4
BITMAP
18
10
52
FE
18
3C
64
48
ENDCHAR
STARTCHAR plus
ENCODING 43
SWIDTH 557 0
DWIDTH 9 0
BBX 8 9 1 1
BITMAP
18
18
18
FF
FF
18
18
18
18
ENDCHAR
STARTCHAR comma
ENCODING 44
SWIDTH 219 0
DWIDTH 4 0
BBX 3 5 0 -3
BITMAP
60
60
60
40
C0
ENDCHAR
STARTCHAR hyphen
ENCODING 45
SWIDTH 328 0
DWIDTH 6 0
BBX 4 2 1 4
BITMAP
F0
F0
ENDCHAR
STARTCHAR period
ENCODING 46
SWIDTH 279 0
DWIDTH 5 0
BBX 3 2 1 0
BITMAP
C0
E0
ENDCHAR
STARTCHAR slash
ENCODING 47
SWIDTH 395 0
DWIDTH 7 0
BBX 6 13 0 -1
BITMAP
04
0C
08
18
18
10
30
30
20
60
60
40
C0
ENDCHAR
STARTCHAR zero
ENCODING 48
SWIDTH 568 0
DWIDTH 10 0
BBX 8 12 1 0
BITMAP
3C
7E
E7
C3
C3
C3
C3
C3
C3
E7
7E
3C
ENDCHAR
STARTCHAR one
ENCODING 49
SWIDTH 568 0
DWIDTH 10 0
BBX 5 12 1 0
BITMAP
08
38
F8
D8
18
18
18
18
18
18
18
18
ENDCHAR
STARTCHAR two
ENCODING 50
SWIDTH 568 0
DWIDTH 10 0
BBX 8 12 1 0
BITMAP
3C
7E
C7
C3
03
06
0C
18
30
60
FF
FF
ENDCHAR
STARTCHAR three
ENCODING 51
SWIDTH 568 0
DWIDTH 10 0
BBX 8 12 1 0
BITMAP
3C
7E
C7
C3
06
3E
3E
07
C3
C7
7E
3C
ENDCHAR
STARTCHAR four
ENCODING 52
SWIDTH 568 0
DWIDTH 10 0
BBX 9 12 0 0
BITMAP
0700
0700
0F00
1B00
1B00
3300
2300
6300
FF80
FF80
0300
0300
ENDCHAR
STARTCHAR five
ENCODING 53
SWIDTH 568 0
DWIDTH 10 0
BBX 8 12 1 0
BITMAP
7F
7F
60
60
7C
7F
43
03
C3
E3
7E
3C
ENDCHAR
STARTCHAR six
ENCODING 54
SWIDTH 568 0
DWIDTH 10 0
BBX 8 12 1 0
BITMAP
1C
3C
70
60
DE
FE
E3
C3
C3
63
7E
3C
ENDCHAR
STARTCHAR seven
ENCODING 55
SWIDTH 568 0
DWIDTH 10 0
BBX 8 12 1 0
BITMAP
FF
FF
02
06
06
0C
0C
18
18
30
30
60
ENDCHAR
STARTCHAR eight
ENCODING 56
SWIDTH 568 0
DWIDTH 10 0
BBX 8 12 1 0
BITMAP
3C
7E
E7
C3
66
7E
7E
C7
C3
C3
7E
3C
ENDCHAR
STARTCHAR nine
ENCODING 57
SWIDTH 568 0
DWIDTH 10 0
BBX 8 12 1 0
BITMAP
3C
7E
E6
C3
C3
C7
7F
3B
06
0E
3C
38
ENDCHAR
STARTCHAR colon
ENCODING 58
SWIDTH 265 0
DWIDTH 5 0
BBX 3 9 1 0
BITMAP
C0
E0
00
00
00
00
00
C0
E0
ENDCHAR
STARTCHAR semicolon
ENCODING 59
SWIDTH 237 0
DWIDTH 4 0
BBX 2 12 1 -3
BITMAP
C0
C0
00
00
00
00
00
C0
C0
C0
C0
80
ENDCHAR
STARTCHAR less
ENCODING 60
SWIDTH 508 0
DWIDTH 9 0
BBX 7 8 1 1
BITMAP
06
1E
78
E0
E0
7C
0E
02
ENDCHAR
STARTCHAR equal
ENCODING 61
SWIDTH 559 0
DWIDTH 10 0
BBX 7 6 1 3
BITMAP
FE
FE
00
00
FE
FE
ENDCHAR
STARTCHAR greater
ENCODING 62
SWIDTH 520 0
DWIDTH 9 0
BBX 7 8 1 1
BITMAP
80
F0
3C
0E
0E
78
E0
80
ENDCHAR
STARTCHAR question
ENCODING 63
SWIDTH 486 0
DWIDTH 8 0
BBX 8 12 0 0
BITMAP
3C
7E
E6
07
06
0E
1C
18
18
00
18
18
ENDCHAR
STARTCHAR at
ENCODING 64
SWIDTH 894 0
DWIDTH 15 0
BBX 13 16 1 -4
BITMAP
0FC0
1860
2010
4018
4788
CCC8
8888
8888
9888
9888
8998
CEF0
C000
6000
3080
0F80
ENDCHAR
STARTCHAR A
ENCODING 65
SWIDTH 665 0
DWIDTH 11 0
BBX 11 12 0 0
BITMAP
0600
0E00
0F00
1B00
1B00
1980
3180
3180
7FC0
7FC0
60E0
E060
ENDCHAR
STARTCHAR B
ENCODING 66
SWIDTH 630 0
DWIDTH 11 0
BBX 9 12 1 0
BITMAP
FE00
FF00
C380
C180
C300
FF00
FF00
C180
C180
C180
FF00
FE00
ENDCHAR
STARTCHAR C
ENCODING 67
SWIDTH 652 0
DWIDTH 11 0
BBX 9 12 1 0
BITMAP
3E00
7F00
E380
C180
C000
C000
C000
C000
C180
E380
7F00
3E00
ENDCHAR
STARTCHAR D
ENCODING 68
SWIDTH 653 0
DWIDTH 11 0
BBX 9 12 1 0
BITMAP
FC00
FF00
C300
C180
C180
C180
C180
C180
C180
C300
FF00
FC00
ENDCHAR
STARTCHAR E
ENCODING 69
SWIDTH 565 0
DWIDTH 10 0
BBX 8 12 1 0
BITMAP
FF
FF
C0
C0
C0
FE
FE
C0
C0
C0
FF
FF
ENDCHAR
STARTCHAR F
ENCODING 70
SWIDTH 549 0
DWIDTH 9 0
BBX 8 12 1 0
BITMAP
FF
FF
C0
C0
C0
FE
FE
C0
C0
C0
C0
C0
ENDCHAR
STARTCHAR G
ENCODING 71
SWIDTH 680 0
DWIDTH 12 0
BBX 10 12 1 0
BITMAP
1E00
7F80
6180
E1C0
C000
C000
C7C0
C7C0
E0C0
70C0
7FC0
1F00
ENDCHAR
STARTCHAR H
ENCODING 72
SWIDTH 710 0
DWIDTH 12 0
BBX 10 12 1 0
BITMAP
C0C0
C0C0
C0C0
C0C0
C0C0
FFC0
FFC0
C0C0
C0C0
C0C0
C0C0
C0C0
ENDCHAR
STARTCHAR I
ENCODING 73
SWIDTH 282 0
DWIDTH 5 0
BBX 2 12 1 0
BITMAP
C0
C0
C0
C0
C0
C0
C0
C0
C0
C0
C0
C0
ENDCHAR
STARTCHAR J
ENCODING 74
SWIDTH 555 0
DWIDTH 9 0
BBX 8 12 0 0
BITMAP
03
03
03
03
03
03
03
03
C3
E7
7E
3C
ENDCHAR
STARTCHAR K
ENCODING 75
SWIDTH 630 0
DWIDTH 11 0
BBX 10 12 1 0
BITMAP
C1C0
C300
C600
CE00
DC00
F800
FC00
EE00
C600
C300
C380
C1C0
ENDCHAR
STARTCHAR L
ENCODING 76
SWIDTH 541 0
DWIDTH 9 0
BBX 8 12 1 0
BITMAP
C0
C0
C0
C0
C0
C0
C0
C0
C0
C0
FF
FF
ENDCHAR
STARTCHAR M
ENCODING 77
SWIDTH 875 0
DWIDTH 15 0
BBX 13 12 1 0
BITMAP
E038
F078
F078
F058
D8D8
D8D8
C998
CD98
CD98
C718
C718
C618
ENDCHAR
STARTCHAR N
ENCODING 78
SWIDTH 709 0
DWIDTH 12 0
BBX 10 12 1 0
BITMAP
E0C0
E0C0
F0C0
F0C0
D8C0
CCC0
CCC0
C6C0
C7C0
C3C0
C1C0
C1C0
ENDCHAR
STARTCHAR O
ENCODING 79
SWIDTH 690 0
DWIDTH 12 0
BBX 10 12 1 0
BITMAP
1E00
7F80
6180
E1C0
C0C0
C0C0
C0C0
C0C0
E0C0
6180
7F80
1E00
ENDCHAR
STARTCHAR P
ENCODING 80
SWIDTH 639 0
DWIDTH 11 0
BBX 9 12 1 0
BITMAP
FE00
FF80
C180
C180
C180
C180
FF80
FE00
C000
C000
C000
C000
ENDCHAR
STARTCHAR Q
ENCODING 81
SWIDTH 690 0
DWIDTH 12 0
BBX 10 14 1 -2
BITMAP
1E00
7F80
6180
C1C0
C0C0
C0C0
C0C0
C0C0
C1C0
6180
7F80
1F00
01C0
0080
ENDCHAR
STARTCHAR R
ENCODING 82
SWIDTH 624 0
DWIDTH 11 0
BBX 10 12 1 0
BITMAP
FE00
FF00
E380
E180
E180
E380
FF00
FE00
E600
E300
E380
E1C0
ENDCHAR
STARTCHAR S
ENCODING 83
SWIDTH 603 0
DWIDTH 10 0
BBX 10 12 0 0
BITMAP
1F00
7F80
6180
61C0
7000
3E00
0F80
0180
E1C0
6180
7F80
1F00
ENDCHAR
STARTCHAR T
ENCODING 84
SWIDTH 606 0
DWIDTH 10 0
BBX 10 12 0 0
BITMAP
FFC0
FFC0
0C00
0C00
0C00
0C00
0C00
0C00
0C00
0C00
0C00
0C00
ENDCHAR
STARTCHAR U
ENCODING 85
SWIDTH 651 0
DWIDTH 11 0
BBX 9 12 1 0
BITMAP
C180
C180
C180
C180
C180
C180
C180
C180
C180
E380
7F00
3E00
ENDCHAR
STARTCHAR V
ENCODING 86
SWIDTH 646 0
DWIDTH 11 0
BBX 11 12 0 0
BITMAP
E0E0
60C0
60C0
71C0
3180
3180
1B80
1B00
1B00
0E00
0E00
0E00
ENDCHAR
STARTCHAR W
ENCODING 87
SWIDTH 879 0
DWIDTH 15 0
BBX 15 12 0 0
BITMAP
E18E
638C
638C
638C
62CC
36D8
36D8
3458
3478
1C70
1C70
1830
ENDCHAR
STARTCHAR X
ENCODING 88
SWIDTH 632 0
DWIDTH 11 0
BBX 10 12 0 0
BITMAP
E0C0
7180
3380
1B00
1F00
0E00
0E00
1F00
3B00
3180
71C0
E0C0
ENDCHAR
STARTCHAR Y
ENCODING 89
SWIDTH 609 0
DWIDTH 10 0
BBX 10 12 0 0
BITMAP
E0C0
6180
7180
3300
3B00
1E00
0E00
0C00
0C00
0C00
0C00
0C00
ENDCHAR
STARTCHAR Z
ENCODING 90
SWIDTH 602 0
DWIDTH 10 0
BBX 9 12 1 0
BITMAP
FF00
FF00
0300
0600
0C00
1C00
1800
3000
6000
E000
FF80
FF80
ENDCHAR
STARTCHAR bracketleft
ENCODING 91
SWIDTH 273 0
DWIDTH 5 0
BBX 3 17 1 -3
BITMAP
E0
E0
C0
C0
C0
C0
C0
C0
C0
C0
C0
C0
C0
C0
C0
E0
E0
ENDCHAR
STARTCHAR backslash
ENCODING 92
SWIDTH 417 0
DWIDTH 7 0
BBX 7 13 0 -1
BITMAP
C0
60
60
30
30
30
18
18
18
0C
0C
06
06
ENDCHAR
STARTCHAR bracketright
ENCODING 93
SWIDTH 273 0
DWIDTH 5 0
BBX 4 17 0 -3
BITMAP
F0
F0
70
70
70
70
70
70
70
70
70
70
70
70
70
F0
F0
ENDCHAR
STARTCHAR asciicircum
ENCODING 94
SWIDTH 427 0
DWIDTH 7 0
BBX 7 6 0 6
BITMAP
10
38
28
6C
6C
C6
ENDCHAR
STARTCHAR underscore
ENCODING 95
SWIDTH 451 0
DWIDTH 8 0
BBX 8 2 0 -2
BITMAP
FF
FF
ENDCHAR
STARTCHAR grave
ENCODING 96
SWIDTH 322 0
DWIDTH 5 0
BBX 4 3 0 10
BITMAP
E0
30
30
ENDCHAR
STARTCHAR a
ENCODING 97
SWIDTH 541 0
DWIDTH 9 0
BBX 7 9 1 0
BITMAP
3C
FE
C6
06
7E
FE
C6
FE
76
ENDCHAR
STARTCHAR b
ENCODING 98
SWIDTH 562 0
DWIDTH 10 0
BBX 8 13 1 0
BITMAP
C0
C0
C0
C0
DC
FE
E3
C3
C3
C3
E3
FE
DC
ENDCHAR
STARTCHAR c
ENCODING 99
SWIDTH 523 0
DWIDTH 9 0
BBX 7 9 1 0
BITMAP
3C
7E
C6
C0
C0
C0
C6
7E
3C
ENDCHAR
STARTCHAR d
ENCODING 100
SWIDTH 564 0
DWIDTH 10 0
BBX 8 13 1 0
BITMAP
03
03
03
03
3B
7F
E7
C3
C3
C3
E7
7F
3B
ENDCHAR
STARTCHAR e
ENCODING 101
SWIDTH 536 0
DWIDTH 9 0
BBX 8 9 1 0
BITMAP
3C
7E
C6
FE
FF
C0
C4
7E
3C
ENDCHAR
STARTCHAR f
ENCODING 102
SWIDTH 354 0
DWIDTH 6 0
BBX 6 13 0 0
BITMAP
1C
3C
30
30
FC
FC
30
30
30
30
30
30
30
ENDCHAR
STARTCHAR g
ENCODING 103
SWIDTH 566 0
DWIDTH 10 0
BBX 8 12 1 -3
BITMAP
3B
7F
E7
C3
C3
C3
E7
7F
3B
47
FE
3C
ENDCHAR
STARTCHAR h
ENCODING 104
SWIDTH 555 0
DWIDTH 9 0
BBX 7 13 1 0
BITMAP
C0
C0
C0
C0
DC
FE
C6
C6
C6
C6
C6
C6
C6
ENDCHAR
STARTCHAR i
ENCODING 105
SWIDTH 255 0
DWIDTH 4 0
BBX 2 12 1 0
BITMAP
C0
C0
00
C0
C0
C0
C0
C0
C0
C0
C0
C0
ENDCHAR
STARTCHAR j
ENCODING 106
SWIDTH 250 0
DWIDTH 4 0
BBX 4 15 -1 -3
BITMAP
30
30
00
30
30
30
30
30
30
30
30
30
30
F0
E0
ENDCHAR
STARTCHAR k
ENCODING 107
SWIDTH 521 0
DWIDTH 9 0
BBX 8 13 1 0
BITMAP
C0
C0
C0
C0
C7
CC
D8
F0
F8
F8
CC
C6
C7
ENDCHAR
STARTCHAR l
ENCODING 108
SWIDTH 255 0
DWIDTH 4 0
BBX 2 13 1 0
BITMAP
C0
C0
C0
C0
C0
C0
C0
C0
C0
C0
C0
C0
C0
ENDCHAR
STARTCHAR m
ENCODING 109
SWIDTH 870 0
DWIDTH 15 0
BBX 13 9 1 0
BITMAP
DCF0
FFF8
C718
C718
C718
C718
C718
C718
C718
ENDCHAR
STARTCHAR n
ENCODING 110
SWIDTH 556 0
DWIDTH 9 0
BBX 7 9 1 0
BITMAP
DC
FE
C6
C6
C6
C6
C6
C6
C6
ENDCHAR
STARTCHAR o
ENCODING 111
SWIDTH 569 0
DWIDTH 10 0
BBX 8 9 1 0
BITMAP
3C
7E
E7
C3
C3
C3
E7
7E
3C
ENDCHAR
STARTCHAR p
ENCODING 112
SWIDTH 562 0
DWIDTH 10 0
BBX 8 12 1 -3
BITMAP
DC
FE
E7
C3
C3
C3
E7
FE
DC
C0
C0
C0
ENDCHAR
STARTCHAR q
ENCODING 113
SWIDTH 567 0
DWIDTH 10 0
BBX 8 12 1 -3
BITMAP
3B
7F
E7
C3
C3
C3
E7
7F
3B
03
03
03
ENDCHAR
STARTCHAR r
ENCODING 114
SWIDTH 351 0
DWIDTH 6 0
BBX 5 9 1 0
BITMAP
D8
F8
C0
C0
C0
C0
C0
C0
C0
ENDCHAR
STARTCHAR s
ENCODING 115
SWIDTH 516 0
DWIDTH 9 0
BBX 7 9 1 0
BITMAP
7C
FE
C6
E0
7C
0E
C6
FE
7C
ENDCHAR
STARTCHAR t
ENCODING 116
SWIDTH 332 0
DWIDTH 6 0
BBX 5 11 0 0
BITMAP
30
30
F8
F8
30
30
30
30
30
38
38
ENDCHAR
STARTCHAR u
ENCODING 117
SWIDTH 555 0
DWIDTH 9 0
BBX 7 9 1 0
BITMAP
C6
C6
C6
C6
C6
C6
C6
FE
7E
ENDCHAR
STARTCHAR v
ENCODING 118
SWIDTH 494 0
DWIDTH 8 0
BBX 8 9 0 0
BITMAP
C3
66
66
66
24
3C
3C
18
18
ENDCHAR
STARTCHAR w
ENCODING 119
SWIDTH 743 0
DWIDTH 13 0
BBX 13 9 0 0
BITMAP
E238
6730
6730
6530
2DA0
3DE0
38E0
18C0
18C0
ENDCHAR
STARTCHAR x
ENCODING 120
SWIDTH 502 0
DWIDTH 9 0
BBX 8 9 0 0
BITMAP
E3
66
36
1C
1C
3C
36
66
E3
ENDCHAR
STARTCHAR y
ENCODING 121
SWIDTH 486 0
DWIDTH 8 0
BBX 8 12 0 -3
BITMAP
C3
66
66
66
3C
3C
3C
18
18
38
70
60
ENDCHAR
STARTCHAR z
ENCODING 122
SWIDTH 502 0
DWIDTH 9 0
BBX 7 9 1 0
BITMAP
FE
FE
0C
18
30
60
E0
FE
FE
ENDCHAR
STARTCHAR braceleft
ENCODING 123
SWIDTH 335 0
DWIDTH 6 0
BBX 5 16 1 -3
BITMAP
10
38
60
60
60
60
60
C0
C0
60
60
60
60
60
30
18
ENDCHAR
STARTCHAR bar
ENCODING 124
SWIDTH 250 0
DWIDTH 4 0
BBX 2 14 1 -2
BITMAP
C0
C0
C0
C0
C0
C0
C0
C0
C0
C0
C0
C0
C0
C0
ENDCHAR
STARTCHAR braceright
ENCODING 125
SWIDTH 335 0
DWIDTH 6 0
BBX 5 16 0 -3
BITMAP
40
E0
30
30
30
30
30
18
18
30
30
30
30
30
60
C0
ENDCHAR
STARTCHAR asciitilde
ENCODING 126
SWIDTH 664 0
DWIDTH 11 0
BBX 9 4 1 3
BITMAP
7080
F980
CF80
8700
ENDCHAR
ENDFONT
