STARTFONT 2.1
FONT -FontForge-Roboto-Bold-R-Normal--25-240-75-75-P-142-ISO10646-1
SIZE 24 75 75
FONTBOUNDINGBOX 48 33 -18 -7
COMMENT "Generated by fontforge, http://fontforge.sourceforge.net"
COMMENT "Copyright 2011 Google Inc. All Rights Reserved."
STARTPROPERTIES 41
FOUNDRY "FontForge"
FAMILY_NAME "Roboto"
WEIGHT_NAME "Bold"
SLANT "R"
SETWIDTH_NAME "Normal"
ADD_STYLE_NAME ""
PIXEL_SIZE 25
POINT_SIZE 240
RESOLUTION_X 75
RESOLUTION_Y 75
SPACING "P"
AVERAGE_WIDTH 142
CHARSET_REGISTRY "ISO10646"
CHARSET_ENCODING "1"
FONTNAME_REGISTRY ""
CHARSET_COLLECTIONS "ISO8859-2 ISO8859-5 ISO8859-7 ISO8859-9 ISO8859-4 ISO10646-1"
FONT_NAME "Roboto-Bold"
FACE_NAME "Roboto Bold"
COPYRIGHT "Copyright 2011 Google Inc. All Rights Reserved."
FONT_VERSION "2.137; 2017"
FONT_ASCENT 19
FONT_DESCENT 6
UNDERLINE_POSITION -2
UNDERLINE_THICKNESS 2
X_HEIGHT 12
CAP_HEIGHT 17
DEFAULT_CHAR 1
RAW_ASCENT 750
RAW_DESCENT 250
NORM_SPACE 6
RELATIVE_WEIGHT 70
RELATIVE_SETWIDTH 50
SUPERSCRIPT_X 0
SUPERSCRIPT_Y 11
SUPERSCRIPT_SIZE 16
SUBSCRIPT_X 0
SUBSCRIPT_Y 3
SUBSCRIPT_SIZE 16
FIGURE_WIDTH 14
AVG_LOWERCASE_WIDTH 139
AVG_UPPERCASE_WIDTH 167
ENDPROPERTIES
CHARS 27
STARTCHAR space
ENCODING 32
SWIDTH 249 0
DWIDTH 6 0
BBX 1 1 0 0
BITMAP
00
ENDCHAR
STARTCHAR A
ENCODING 65
SWIDTH 672 0
DWIDTH 17 0
BBX 17 18 0 0
BITMAP
01C000
03E000
03E000
07E000
07F000
077000
0F7800
0E7800
0E3800
1E3C00
1C3C00
3FFC00
3FFE00
3FFE00
780E00
780F00
700F00
F00780
ENDCHAR
STARTCHAR B
ENCODING 66
SWIDTH 638 0
DWIDTH 16 0
BBX 13 18 2 0
BITMAP
FF80
FFE0
FFF0
E0F0
E070
E070
E0F0
FFE0
FFC0
FFF0
E0F0
E078
E078
E078
E0F8
FFF0
FFE0
FFC0
ENDCHAR
STARTCHAR C
ENCODING 67
SWIDTH 654 0
DWIDTH 16 0
BBX 15 18 1 0
BITMAP
07C0
1FF0
3FF8
7C3C
783C
F01C
F002
F000
F000
F000
F000
F000
F01E
783C
783C
3FF8
1FF0
07C0
ENDCHAR
STARTCHAR D
ENCODING 68
SWIDTH 649 0
DWIDTH 16 0
BBX 13 18 2 0
BITMAP
FF00
FFC0
FFE0
E1F0
E0F0
E078
E078
E078
E078
E078
E078
E078
E078
E0F0
E1F0
FFE0
FFC0
FF00
ENDCHAR
STARTCHAR E
ENCODING 69
SWIDTH 562 0
DWIDTH 14 0
BBX 12 18 2 0
BITMAP
FFE0
FFE0
FFE0
E000
E000
E000
E000
FFC0
FFC0
FFC0
E000
E000
E000
E000
E000
FFF0
FFF0
FFF0
ENDCHAR
STARTCHAR F
ENCODING 70
SWIDTH 547 0
DWIDTH 14 0
BBX 11 18 2 0
BITMAP
FFE0
FFE0
FFE0
E000
E000
E000
E000
E000
FFC0
FFC0
FFC0
E000
E000
E000
E000
E000
E000
E000
ENDCHAR
STARTCHAR G
ENCODING 71
SWIDTH 681 0
DWIDTH 17 0
BBX 15 18 1 0
BITMAP
07E0
1FF0
3FF8
7C3C
781C
F01E
F000
F000
F000
F0FE
F0FE
F0FE
F01E
781E
7C1E
3FFE
1FFC
07E0
ENDCHAR
STARTCHAR H
ENCODING 72
SWIDTH 706 0
DWIDTH 18 0
BBX 14 18 2 0
BITMAP
E03C
E03C
E03C
E03C
E03C
E03C
E03C
FFFC
FFFC
FFFC
E03C
E03C
E03C
E03C
E03C
E03C
E03C
E03C
ENDCHAR
STARTCHAR I
ENCODING 73
SWIDTH 291 0
DWIDTH 7 0
BBX 3 18 2 0
BITMAP
E0
E0
E0
E0
E0
E0
E0
E0
E0
E0
E0
E0
E0
E0
E0
E0
E0
E0
ENDCHAR
STARTCHAR J
ENCODING 74
SWIDTH 558 0
DWIDTH 14 0
BBX 12 18 0 0
BITMAP
0070
0070
0070
0070
0070
0070
0070
0070
0070
0070
0070
0070
F070
7070
78F0
7FF0
3FE0
0F80
ENDCHAR
STARTCHAR K
ENCODING 75
SWIDTH 634 0
DWIDTH 16 0
BBX 14 18 2 0
BITMAP
E07C
E0F8
E0F0
E1E0
E3C0
E7C0
EF80
EF00
FF00
FF80
FF80
FBC0
F3E0
E1E0
E0F0
E0F8
E078
E07C
ENDCHAR
STARTCHAR L
ENCODING 76
SWIDTH 541 0
DWIDTH 14 0
BBX 11 18 2 0
BITMAP
E000
E000
E000
E000
E000
E000
E000
E000
E000
E000
E000
E000
E000
E000
E000
FFE0
FFE0
FFE0
ENDCHAR
STARTCHAR M
ENCODING 77
SWIDTH 875 0
DWIDTH 22 0
BBX 18 18 2 0
BITMAP
F807C0
F807C0
F807C0
FC0FC0
FC0FC0
FC0FC0
EE1DC0
EE1DC0
EE1DC0
E739C0
E739C0
E779C0
E3F1C0
E3F1C0
E3E1C0
E1E1C0
E1E1C0
E1C1C0
ENDCHAR
STARTCHAR N
ENCODING 78
SWIDTH 706 0
DWIDTH 18 0
BBX 14 18 2 0
BITMAP
F01C
F01C
F81C
FC1C
FC1C
FE1C
FE1C
FF1C
F79C
F39C
F3DC
F1DC
F1FC
F0FC
F07C
F07C
F03C
F03C
ENDCHAR
STARTCHAR O
ENCODING 79
SWIDTH 690 0
DWIDTH 17 0
BBX 15 18 1 0
BITMAP
07C0
1FF0
3FF8
7C7C
783C
F01E
F01E
F01E
F01E
F01E
F01E
F01E
F01E
783C
7C7C
3FF8
1FF0
07C0
ENDCHAR
STARTCHAR P
ENCODING 80
SWIDTH 645 0
DWIDTH 16 0
BBX 13 18 2 0
BITMAP
FF80
FFE0
FFF0
E0F8
E078
E078
E078
E078
E0F8
FFF0
FFE0
FF80
E000
E000
E000
E000
E000
E000
ENDCHAR
STARTCHAR Q
ENCODING 81
SWIDTH 690 0
DWIDTH 17 0
BBX 15 21 1 -3
BITMAP
07C0
1FF0
3FF8
7C7C
783C
F01E
F01E
F01E
F01E
F01E
F01E
F01E
F01E
783C
7C7C
3FF8
1FF0
07F8
003C
001E
0008
ENDCHAR
STARTCHAR R
ENCODING 82
SWIDTH 638 0
DWIDTH 16 0
BBX 13 18 2 0
BITMAP
FF80
FFE0
FFF0
E0F8
E078
E078
E078
E0F0
FFF0
FFE0
FFC0
E3C0
E1E0
E1E0
E0F0
E0F0
E078
E078
ENDCHAR
STARTCHAR S
ENCODING 83
SWIDTH 614 0
DWIDTH 15 0
BBX 13 18 1 0
BITMAP
0FC0
3FE0
7FF0
F878
F078
F000
F800
7F00
3FC0
0FF0
03F8
0078
E038
F038
F878
7FF8
3FF0
0FC0
ENDCHAR
STARTCHAR T
ENCODING 84
SWIDTH 618 0
DWIDTH 15 0
BBX 15 18 0 0
BITMAP
FFFE
FFFE
FFFE
03C0
03C0
03C0
03C0
03C0
03C0
03C0
03C0
03C0
03C0
03C0
03C0
03C0
03C0
03C0
ENDCHAR
STARTCHAR U
ENCODING 85
SWIDTH 658 0
DWIDTH 16 0
BBX 14 18 1 0
BITMAP
F03C
F03C
F03C
F03C
F03C
F03C
F03C
F03C
F03C
F03C
F03C
F03C
F03C
F03C
7878
7FF8
3FF0
0FC0
ENDCHAR
STARTCHAR V
ENCODING 86
SWIDTH 653 0
DWIDTH 16 0
BBX 16 18 0 0
BITMAP
F00F
F00F
781E
781E
781E
3C3C
3C3C
3C3C
1C78
1E78
0E70
0E70
0FF0
07E0
07E0
07E0
03C0
03C0
ENDCHAR
STARTCHAR W
ENCODING 87
SWIDTH 874 0
DWIDTH 22 0
BBX 22 18 0 0
BITMAP
F0783C
707838
787878
787878
78FC78
38FC70
38FC70
3CFCF0
3CCEF0
1DCEE0
1DCEE0
1DCEE0
1D86E0
1F87E0
0F87C0
0F87C0
0F83C0
0F03C0
ENDCHAR
STARTCHAR X
ENCODING 88
SWIDTH 635 0
DWIDTH 16 0
BBX 16 18 0 0
BITMAP
F81E
783E
3C3C
3C78
1E78
0FF0
0FF0
07E0
07E0
07E0
07E0
0FF0
1FF0
1E78
3C7C
3C3C
781E
F81F
ENDCHAR
STARTCHAR Y
ENCODING 89
SWIDTH 618 0
DWIDTH 15 0
BBX 15 18 0 0
BITMAP
F01E
781E
783C
3C3C
3C78
1E78
1EF0
0EF0
0FE0
07E0
07C0
03C0
03C0
03C0
03C0
03C0
03C0
03C0
ENDCHAR
STARTCHAR Z
ENCODING 90
SWIDTH 605 0
DWIDTH 15 0
BBX 13 18 1 0
BITMAP
FFF8
FFF8
FFF8
00F0
00F0
01E0
03C0
03C0
0780
0F00
0F00
1E00
3C00
7C00
7800
FFF8
FFF8
FFF8
ENDCHAR
ENDFONT
